<svg width="24" height="24" viewBox="0 0 24 24" fill="none" xmlns="http://www.w3.org/2000/svg">
<rect x="0.5" y="0.5" width="23" height="23" rx="11.5" stroke="#020120" stroke-opacity="0.5"/>
<path d="M9.3319 5.6001C7.27377 5.6001 5.59961 7.27581 5.59961 9.33447V14.6678C5.59961 16.7259 7.27532 18.4001 9.33398 18.4001H14.6673C16.7255 18.4001 18.3996 16.7244 18.3996 14.6657V9.33239C18.3996 7.27426 16.7239 5.6001 14.6652 5.6001H9.3319ZM15.7329 7.73343C16.0273 7.73343 16.2663 7.97236 16.2663 8.26676C16.2663 8.56116 16.0273 8.8001 15.7329 8.8001C15.4385 8.8001 15.1996 8.56116 15.1996 8.26676C15.1996 7.97236 15.4385 7.73343 15.7329 7.73343ZM11.9996 8.8001C13.7644 8.8001 15.1996 10.2353 15.1996 12.0001C15.1996 13.7649 13.7644 15.2001 11.9996 15.2001C10.2348 15.2001 8.79961 13.7649 8.79961 12.0001C8.79961 10.2353 10.2348 8.8001 11.9996 8.8001ZM11.9996 9.86676C11.4338 9.86676 10.8912 10.0915 10.4911 10.4916C10.091 10.8917 9.86628 11.4343 9.86628 12.0001C9.86628 12.5659 10.091 13.1085 10.4911 13.5086C10.8912 13.9087 11.4338 14.1334 11.9996 14.1334C12.5654 14.1334 13.108 13.9087 13.5081 13.5086C13.9082 13.1085 14.1329 12.5659 14.1329 12.0001C14.1329 11.4343 13.9082 10.8917 13.5081 10.4916C13.108 10.0915 12.5654 9.86676 11.9996 9.86676Z" fill="#6D6B79"/>
</svg>
