<svg width="24" height="24" viewBox="0 0 24 24" fill="none" xmlns="http://www.w3.org/2000/svg">
<rect x="0.5" y="0.5" width="23" height="23" rx="11.5" stroke="#020120" stroke-opacity="0.5"/>
<path d="M12.0981 5.71143C15.8094 5.71143 18.7975 8.1333 18.7975 11.1414C18.7975 12.6064 18.075 13.8952 16.9419 14.9108C15.1056 16.727 11.9419 18.5633 11.61 18.4264C11.0631 18.2114 12.02 17.0395 11.6294 16.532C11.5706 16.4539 11.3556 16.4733 10.965 16.4145C7.7425 15.9845 5.4375 13.8558 5.4375 11.1214C5.4375 8.1133 8.40687 5.71143 12.0981 5.71143ZM8.29 12.9377H9.42312C9.61875 12.9377 9.73562 12.7814 9.73562 12.5858C9.73562 12.4489 9.63812 12.2733 9.38375 12.2733H8.46562C8.3875 12.2733 8.3875 12.1952 8.3875 11.9214V9.94893C8.3875 9.7733 8.27 9.59705 8.05562 9.59705C7.86 9.59705 7.72375 9.7533 7.72375 9.94893V12.332C7.72375 12.8595 7.9775 12.9377 8.29 12.9377ZM10.8481 12.6645V9.94955C10.8481 9.77392 10.7113 9.59768 10.4963 9.59768C10.3206 9.59768 10.1644 9.75392 10.1644 9.94955V12.6645C10.1644 12.8402 10.3012 12.977 10.5162 12.977C10.6919 12.977 10.8481 12.8402 10.8481 12.6645ZM14.0512 12.2933V9.91017C14.0512 9.73455 13.9144 9.59768 13.6994 9.59768C13.5431 9.59768 13.3675 9.69518 13.3675 9.91017V11.6289L12.2344 10.047C12.0781 9.7733 11.8825 9.59768 11.6481 9.59768C11.355 9.59768 11.3356 9.83205 11.3356 10.1639V12.6639C11.3356 12.8396 11.4725 12.9764 11.6675 12.9764C11.8431 12.9764 11.9994 12.8589 11.9994 12.6639V10.8864L13.1325 12.4683C13.3862 12.8002 13.445 12.9764 13.7575 12.9764C13.9725 12.9764 14.0512 12.7814 14.0512 12.2933ZM16.2387 10.9458H15.2425V10.3795C15.2425 10.3208 15.2619 10.2427 15.36 10.2427H16.2387C16.4537 10.2427 16.5906 10.1252 16.5906 9.9108C16.5906 9.65705 16.395 9.57893 16.2194 9.57893H15.0862C14.7344 9.57893 14.5587 9.8133 14.5587 10.1258V12.3327C14.5587 12.7233 14.715 12.9383 15.0862 12.9383H16.2387C16.4925 12.9383 16.5906 12.782 16.5906 12.5864C16.5906 12.3327 16.395 12.2545 16.2387 12.2545H15.3794C15.3012 12.2545 15.2425 12.1958 15.2425 12.137V11.5902H16.2775C16.5312 11.5902 16.5706 11.3945 16.5706 11.2583C16.5706 11.0627 16.4144 10.9458 16.2387 10.9458Z" fill="#020120" fill-opacity="0.5"/>
</svg>
