<svg width="24" height="24" viewBox="0 0 24 24" fill="none" xmlns="http://www.w3.org/2000/svg">
<rect x="0.5" y="0.5" width="23" height="23" rx="11.5" stroke="#020120" stroke-opacity="0.5"/>
<path d="M17.4004 5.3999H6.60039C5.93739 5.3999 5.40039 5.9369 5.40039 6.5999V17.3999C5.40039 18.0629 5.93739 18.5999 6.60039 18.5999H17.4004C18.0634 18.5999 18.6004 18.0629 18.6004 17.3999V6.5999C18.6004 5.9369 18.0628 5.3999 17.4004 5.3999ZM16.6138 11.0843C16.5358 11.0915 16.4572 11.0963 16.378 11.0963C15.481 11.0963 14.6926 10.6355 14.2336 9.9377C14.2336 11.7671 14.2336 13.8491 14.2336 13.8839C14.2336 15.4949 12.9274 16.8005 11.317 16.8005C9.70659 16.7999 8.40039 15.4937 8.40039 13.8833C8.40039 12.2723 9.70659 10.9667 11.317 10.9667C11.3782 10.9667 11.4376 10.9721 11.497 10.9757V12.4133C11.437 12.4061 11.3788 12.3953 11.317 12.3953C10.495 12.3953 9.82839 13.0619 9.82839 13.8839C9.82839 14.7059 10.4944 15.3725 11.317 15.3725C12.1396 15.3725 12.8656 14.7245 12.8656 13.9025C12.8656 13.8695 12.88 7.2005 12.88 7.2005H14.2534C14.3824 8.4287 15.3742 9.3983 16.6138 9.4871V11.0843Z" fill="#6D6B79"/>
</svg>
