<svg width="24" height="24" viewBox="0 0 24 24" fill="none" xmlns="http://www.w3.org/2000/svg">
<rect x="0.5" y="0.5" width="23" height="23" rx="11.5" stroke="#020120" stroke-opacity="0.5"/>
<path d="M19.6704 8.14478C19.5815 7.80206 19.4032 7.48909 19.1537 7.23785C18.9042 6.98661 18.5925 6.8061 18.2504 6.71477C16.1764 6.47016 14.0887 6.35993 12.0004 6.38477C9.91214 6.35993 7.82445 6.47016 5.75041 6.71477C5.40833 6.8061 5.09662 6.98661 4.84714 7.23785C4.59765 7.48909 4.41934 7.80206 4.33041 8.14478C4.10322 9.41872 3.99276 10.7108 4.00041 12.0048C3.99238 13.3055 4.10284 14.6042 4.33041 15.8848C4.42395 16.222 4.60431 16.5287 4.85349 16.7744C5.10266 17.0201 5.41193 17.1961 5.75041 17.2848C7.82445 17.5294 9.91214 17.6397 12.0004 17.6148C14.0887 17.6397 16.1764 17.5294 18.2504 17.2848C18.5889 17.1961 18.8982 17.0201 19.1473 16.7744C19.3965 16.5287 19.5769 16.222 19.6704 15.8848C19.898 14.6042 20.0084 13.3055 20.0004 12.0048C20.0081 10.7108 19.8976 9.41872 19.6704 8.14478ZM10.3604 14.3948V9.63477L14.5504 12.0048L10.3604 14.3848V14.3948Z" fill="#020120" fill-opacity="0.5"/>
</svg>
